<?xml version="1.0" encoding="utf-8" standalone="no"?>
<!DOCTYPE svg PUBLIC "-//W3C//DTD SVG 1.1//EN"
  "http://www.w3.org/Graphics/SVG/1.1/DTD/svg11.dtd">
<svg xmlns:xlink="http://www.w3.org/1999/xlink" width="736.73971pt" height="485.380369pt" viewBox="0 0 736.73971 485.380369" xmlns="http://www.w3.org/2000/svg" version="1.1">
 <metadata>
  <rdf:RDF xmlns:dc="http://purl.org/dc/elements/1.1/" xmlns:cc="http://creativecommons.org/ns#" xmlns:rdf="http://www.w3.org/1999/02/22-rdf-syntax-ns#">
   <cc:Work>
    <dc:type rdf:resource="http://purl.org/dc/dcmitype/StillImage"/>
    <dc:date>2026-03-18T14:06:38.886752</dc:date>
    <dc:format>image/svg+xml</dc:format>
    <dc:creator>
     <cc:Agent>
      <dc:title>Matplotlib v3.9.2, https://matplotlib.org/</dc:title>
     </cc:Agent>
    </dc:creator>
   </cc:Work>
  </rdf:RDF>
 </metadata>
 <defs>
  <style type="text/css">*{stroke-linejoin: round; stroke-linecap: butt}</style>
 </defs>
 <g id="figure_1">
  <g id="patch_1">
   <path d="M 0 485.380369 
L 736.73971 485.380369 
L 736.73971 0 
L 0 0 
z
" style="fill: #ffffff"/>
  </g>
  <g id="axes_1">
   <g id="patch_2">
    <path d="M 54.01375 438.650994 
L 729.53971 438.650994 
L 729.53971 23.837812 
L 54.01375 23.837812 
z
" style="fill: #ffffff"/>
   </g>
   <g id="matplotlib.axis_1">
    <g id="xtick_1">
     <g id="line2d_1">
      <defs>
       <path id="mea937e35d1" d="M 0 0 
L 0 3.5 
" style="stroke: #000000; stroke-width: 0.8"/>
      </defs>
      <g>
       <use xlink:href="#mea937e35d1" x="84.719475" y="438.650994" style="stroke: #000000; stroke-width: 0.8"/>
      </g>
     </g>
     <g id="text_1">
      <!-- 0.0 -->
      <g transform="translate(73.587288 456.288807) scale(0.14 -0.14)">
       <defs>
        <path id="DejaVuSans-30" d="M 2034 4250 
Q 1547 4250 1301 3770 
Q 1056 3291 1056 2328 
Q 1056 1369 1301 889 
Q 1547 409 2034 409 
Q 2525 409 2770 889 
Q 3016 1369 3016 2328 
Q 3016 3291 2770 3770 
Q 2525 4250 2034 4250 
z
M 2034 4750 
Q 2819 4750 3233 4129 
Q 3647 3509 3647 2328 
Q 3647 1150 3233 529 
Q 2819 -91 2034 -91 
Q 1250 -91 836 529 
Q 422 1150 422 2328 
Q 422 3509 836 4129 
Q 1250 4750 2034 4750 
z
" transform="scale(0.015625)"/>
        <path id="DejaVuSans-2e" d="M 684 794 
L 1344 794 
L 1344 0 
L 684 0 
L 684 794 
z
" transform="scale(0.015625)"/>
       </defs>
       <use xlink:href="#DejaVuSans-30"/>
       <use xlink:href="#DejaVuSans-2e" x="63.623047"/>
       <use xlink:href="#DejaVuSans-30" x="95.410156"/>
      </g>
     </g>
    </g>
    <g id="xtick_2">
     <g id="line2d_2">
      <g>
       <use xlink:href="#mea937e35d1" x="207.542377" y="438.650994" style="stroke: #000000; stroke-width: 0.8"/>
      </g>
     </g>
     <g id="text_2">
      <!-- 0.2 -->
      <g transform="translate(196.41019 456.288807) scale(0.14 -0.14)">
       <defs>
        <path id="DejaVuSans-32" d="M 1228 531 
L 3431 531 
L 3431 0 
L 469 0 
L 469 531 
Q 828 903 1448 1529 
Q 2069 2156 2228 2338 
Q 2531 2678 2651 2914 
Q 2772 3150 2772 3378 
Q 2772 3750 2511 3984 
Q 2250 4219 1831 4219 
Q 1534 4219 1204 4116 
Q 875 4013 500 3803 
L 500 4441 
Q 881 4594 1212 4672 
Q 1544 4750 1819 4750 
Q 2544 4750 2975 4387 
Q 3406 4025 3406 3419 
Q 3406 3131 3298 2873 
Q 3191 2616 2906 2266 
Q 2828 2175 2409 1742 
Q 1991 1309 1228 531 
z
" transform="scale(0.015625)"/>
       </defs>
       <use xlink:href="#DejaVuSans-30"/>
       <use xlink:href="#DejaVuSans-2e" x="63.623047"/>
       <use xlink:href="#DejaVuSans-32" x="95.410156"/>
      </g>
     </g>
    </g>
    <g id="xtick_3">
     <g id="line2d_3">
      <g>
       <use xlink:href="#mea937e35d1" x="330.365279" y="438.650994" style="stroke: #000000; stroke-width: 0.8"/>
      </g>
     </g>
     <g id="text_3">
      <!-- 0.4 -->
      <g transform="translate(319.233092 456.288807) scale(0.14 -0.14)">
       <defs>
        <path id="DejaVuSans-34" d="M 2419 4116 
L 825 1625 
L 2419 1625 
L 2419 4116 
z
M 2253 4666 
L 3047 4666 
L 3047 1625 
L 3713 1625 
L 3713 1100 
L 3047 1100 
L 3047 0 
L 2419 0 
L 2419 1100 
L 313 1100 
L 313 1709 
L 2253 4666 
z
" transform="scale(0.015625)"/>
       </defs>
       <use xlink:href="#DejaVuSans-30"/>
       <use xlink:href="#DejaVuSans-2e" x="63.623047"/>
       <use xlink:href="#DejaVuSans-34" x="95.410156"/>
      </g>
     </g>
    </g>
    <g id="xtick_4">
     <g id="line2d_4">
      <g>
       <use xlink:href="#mea937e35d1" x="453.188181" y="438.650994" style="stroke: #000000; stroke-width: 0.8"/>
      </g>
     </g>
     <g id="text_4">
      <!-- 0.6 -->
      <g transform="translate(442.055993 456.288807) scale(0.14 -0.14)">
       <defs>
        <path id="DejaVuSans-36" d="M 2113 2584 
Q 1688 2584 1439 2293 
Q 1191 2003 1191 1497 
Q 1191 994 1439 701 
Q 1688 409 2113 409 
Q 2538 409 2786 701 
Q 3034 994 3034 1497 
Q 3034 2003 2786 2293 
Q 2538 2584 2113 2584 
z
M 3366 4563 
L 3366 3988 
Q 3128 4100 2886 4159 
Q 2644 4219 2406 4219 
Q 1781 4219 1451 3797 
Q 1122 3375 1075 2522 
Q 1259 2794 1537 2939 
Q 1816 3084 2150 3084 
Q 2853 3084 3261 2657 
Q 3669 2231 3669 1497 
Q 3669 778 3244 343 
Q 2819 -91 2113 -91 
Q 1303 -91 875 529 
Q 447 1150 447 2328 
Q 447 3434 972 4092 
Q 1497 4750 2381 4750 
Q 2619 4750 2861 4703 
Q 3103 4656 3366 4563 
z
" transform="scale(0.015625)"/>
       </defs>
       <use xlink:href="#DejaVuSans-30"/>
       <use xlink:href="#DejaVuSans-2e" x="63.623047"/>
       <use xlink:href="#DejaVuSans-36" x="95.410156"/>
      </g>
     </g>
    </g>
    <g id="xtick_5">
     <g id="line2d_5">
      <g>
       <use xlink:href="#mea937e35d1" x="576.011083" y="438.650994" style="stroke: #000000; stroke-width: 0.8"/>
      </g>
     </g>
     <g id="text_5">
      <!-- 0.8 -->
      <g transform="translate(564.878895 456.288807) scale(0.14 -0.14)">
       <defs>
        <path id="DejaVuSans-38" d="M 2034 2216 
Q 1584 2216 1326 1975 
Q 1069 1734 1069 1313 
Q 1069 891 1326 650 
Q 1584 409 2034 409 
Q 2484 409 2743 651 
Q 3003 894 3003 1313 
Q 3003 1734 2745 1975 
Q 2488 2216 2034 2216 
z
M 1403 2484 
Q 997 2584 770 2862 
Q 544 3141 544 3541 
Q 544 4100 942 4425 
Q 1341 4750 2034 4750 
Q 2731 4750 3128 4425 
Q 3525 4100 3525 3541 
Q 3525 3141 3298 2862 
Q 3072 2584 2669 2484 
Q 3125 2378 3379 2068 
Q 3634 1759 3634 1313 
Q 3634 634 3220 271 
Q 2806 -91 2034 -91 
Q 1263 -91 848 271 
Q 434 634 434 1313 
Q 434 1759 690 2068 
Q 947 2378 1403 2484 
z
M 1172 3481 
Q 1172 3119 1398 2916 
Q 1625 2713 2034 2713 
Q 2441 2713 2670 2916 
Q 2900 3119 2900 3481 
Q 2900 3844 2670 4047 
Q 2441 4250 2034 4250 
Q 1625 4250 1398 4047 
Q 1172 3844 1172 3481 
z
" transform="scale(0.015625)"/>
       </defs>
       <use xlink:href="#DejaVuSans-30"/>
       <use xlink:href="#DejaVuSans-2e" x="63.623047"/>
       <use xlink:href="#DejaVuSans-38" x="95.410156"/>
      </g>
     </g>
    </g>
    <g id="xtick_6">
     <g id="line2d_6">
      <g>
       <use xlink:href="#mea937e35d1" x="698.833985" y="438.650994" style="stroke: #000000; stroke-width: 0.8"/>
      </g>
     </g>
     <g id="text_6">
      <!-- 1.0 -->
      <g transform="translate(687.701797 456.288807) scale(0.14 -0.14)">
       <defs>
        <path id="DejaVuSans-31" d="M 794 531 
L 1825 531 
L 1825 4091 
L 703 3866 
L 703 4441 
L 1819 4666 
L 2450 4666 
L 2450 531 
L 3481 531 
L 3481 0 
L 794 0 
L 794 531 
z
" transform="scale(0.015625)"/>
       </defs>
       <use xlink:href="#DejaVuSans-31"/>
       <use xlink:href="#DejaVuSans-2e" x="63.623047"/>
       <use xlink:href="#DejaVuSans-30" x="95.410156"/>
      </g>
     </g>
    </g>
    <g id="text_7">
     <!-- $ \varepsilon$ ($V_{\mathrm{fs}}/V_j$) -->
     <g transform="translate(362.30673 473.840369) scale(0.14 -0.14)">
      <defs>
       <path id="DejaVuSans-Oblique-3b5" d="M 1263 1888 
Q 925 1963 778 2166 
Q 669 2309 669 2503 
Q 669 3034 1175 3344 
Q 1575 3588 2188 3588 
Q 2425 3588 2684 3550 
Q 2944 3513 3234 3438 
L 3134 2916 
Q 2847 3006 2606 3047 
Q 2359 3088 2138 3088 
Q 1766 3088 1522 2944 
Q 1228 2772 1228 2522 
Q 1228 2356 1381 2241 
Q 1563 2103 1925 2103 
L 2409 2103 
L 2319 1628 
L 1856 1628 
Q 1425 1628 1172 1469 
Q 828 1253 828 916 
Q 828 703 1013 563 
Q 1244 388 1716 388 
Q 2006 388 2284 444 
Q 2563 503 2806 619 
L 2700 84 
Q 2403 -3 2131 -47 
Q 1859 -91 1609 -91 
Q 866 -91 516 194 
Q 250 413 250 781 
Q 250 1278 600 1584 
Q 859 1813 1263 1888 
z
" transform="scale(0.015625)"/>
       <path id="DejaVuSans-20" transform="scale(0.015625)"/>
       <path id="DejaVuSans-28" d="M 1984 4856 
Q 1566 4138 1362 3434 
Q 1159 2731 1159 2009 
Q 1159 1288 1364 580 
Q 1569 -128 1984 -844 
L 1484 -844 
Q 1016 -109 783 600 
Q 550 1309 550 2009 
Q 550 2706 781 3412 
Q 1013 4119 1484 4856 
L 1984 4856 
z
" transform="scale(0.015625)"/>
       <path id="DejaVuSans-Oblique-56" d="M 1319 0 
L 500 4666 
L 1119 4666 
L 1797 653 
L 4063 4666 
L 4750 4666 
L 2053 0 
L 1319 0 
z
" transform="scale(0.015625)"/>
       <path id="DejaVuSans-66" d="M 2375 4863 
L 2375 4384 
L 1825 4384 
Q 1516 4384 1395 4259 
Q 1275 4134 1275 3809 
L 1275 3500 
L 2222 3500 
L 2222 3053 
L 1275 3053 
L 1275 0 
L 697 0 
L 697 3053 
L 147 3053 
L 147 3500 
L 697 3500 
L 697 3744 
Q 697 4328 969 4595 
Q 1241 4863 1831 4863 
L 2375 4863 
z
" transform="scale(0.015625)"/>
       <path id="DejaVuSans-73" d="M 2834 3397 
L 2834 2853 
Q 2591 2978 2328 3040 
Q 2066 3103 1784 3103 
Q 1356 3103 1142 2972 
Q 928 2841 928 2578 
Q 928 2378 1081 2264 
Q 1234 2150 1697 2047 
L 1894 2003 
Q 2506 1872 2764 1633 
Q 3022 1394 3022 966 
Q 3022 478 2636 193 
Q 2250 -91 1575 -91 
Q 1294 -91 989 -36 
Q 684 19 347 128 
L 347 722 
Q 666 556 975 473 
Q 1284 391 1588 391 
Q 1994 391 2212 530 
Q 2431 669 2431 922 
Q 2431 1156 2273 1281 
Q 2116 1406 1581 1522 
L 1381 1569 
Q 847 1681 609 1914 
Q 372 2147 372 2553 
Q 372 3047 722 3315 
Q 1072 3584 1716 3584 
Q 2034 3584 2315 3537 
Q 2597 3491 2834 3397 
z
" transform="scale(0.015625)"/>
       <path id="DejaVuSans-2f" d="M 1625 4666 
L 2156 4666 
L 531 -594 
L 0 -594 
L 1625 4666 
z
" transform="scale(0.015625)"/>
       <path id="DejaVuSans-Oblique-6a" d="M 928 3500 
L 1503 3500 
L 813 -63 
L 809 -78 
Q 694 -675 544 -897 
Q 403 -1106 132 -1218 
Q -138 -1331 -506 -1331 
L -722 -1331 
L -628 -844 
L -481 -844 
Q -144 -844 -1 -703 
Q 141 -563 238 -63 
L 928 3500 
z
M 1197 4863 
L 1772 4863 
L 1631 4134 
L 1056 4134 
L 1197 4863 
z
" transform="scale(0.015625)"/>
       <path id="DejaVuSans-29" d="M 513 4856 
L 1013 4856 
Q 1481 4119 1714 3412 
Q 1947 2706 1947 2009 
Q 1947 1309 1714 600 
Q 1481 -109 1013 -844 
L 513 -844 
Q 928 -128 1133 580 
Q 1338 1288 1338 2009 
Q 1338 2731 1133 3434 
Q 928 4138 513 4856 
z
" transform="scale(0.015625)"/>
      </defs>
      <use xlink:href="#DejaVuSans-Oblique-3b5" transform="translate(0 0.125)"/>
      <use xlink:href="#DejaVuSans-20" transform="translate(54.052734 0.125)"/>
      <use xlink:href="#DejaVuSans-28" transform="translate(85.839844 0.125)"/>
      <use xlink:href="#DejaVuSans-Oblique-56" transform="translate(124.853516 0.125)"/>
      <use xlink:href="#DejaVuSans-66" transform="translate(193.261719 -16.28125) scale(0.7)"/>
      <use xlink:href="#DejaVuSans-73" transform="translate(217.905273 -16.28125) scale(0.7)"/>
      <use xlink:href="#DejaVuSans-2f" transform="translate(257.109375 0.125)"/>
      <use xlink:href="#DejaVuSans-Oblique-56" transform="translate(290.800781 0.125)"/>
      <use xlink:href="#DejaVuSans-Oblique-6a" transform="translate(359.208984 -16.28125) scale(0.7)"/>
      <use xlink:href="#DejaVuSans-29" transform="translate(381.391602 0.125)"/>
     </g>
    </g>
   </g>
   <g id="matplotlib.axis_2">
    <g id="ytick_1">
     <g id="line2d_7">
      <defs>
       <path id="m5a4a5912ef" d="M 0 0 
L -3.5 0 
" style="stroke: #000000; stroke-width: 0.8"/>
      </defs>
      <g>
       <use xlink:href="#m5a4a5912ef" x="54.01375" y="438.650994" style="stroke: #000000; stroke-width: 0.8"/>
      </g>
     </g>
     <g id="text_8">
      <!-- 0.0 -->
      <g transform="translate(24.749375 443.9699) scale(0.14 -0.14)">
       <use xlink:href="#DejaVuSans-30"/>
       <use xlink:href="#DejaVuSans-2e" x="63.623047"/>
       <use xlink:href="#DejaVuSans-30" x="95.410156"/>
      </g>
     </g>
    </g>
    <g id="ytick_2">
     <g id="line2d_8">
      <g>
       <use xlink:href="#m5a4a5912ef" x="54.01375" y="359.63896" style="stroke: #000000; stroke-width: 0.8"/>
      </g>
     </g>
     <g id="text_9">
      <!-- 0.2 -->
      <g transform="translate(24.749375 364.957866) scale(0.14 -0.14)">
       <use xlink:href="#DejaVuSans-30"/>
       <use xlink:href="#DejaVuSans-2e" x="63.623047"/>
       <use xlink:href="#DejaVuSans-32" x="95.410156"/>
      </g>
     </g>
    </g>
    <g id="ytick_3">
     <g id="line2d_9">
      <g>
       <use xlink:href="#m5a4a5912ef" x="54.01375" y="280.626925" style="stroke: #000000; stroke-width: 0.8"/>
      </g>
     </g>
     <g id="text_10">
      <!-- 0.4 -->
      <g transform="translate(24.749375 285.945831) scale(0.14 -0.14)">
       <use xlink:href="#DejaVuSans-30"/>
       <use xlink:href="#DejaVuSans-2e" x="63.623047"/>
       <use xlink:href="#DejaVuSans-34" x="95.410156"/>
      </g>
     </g>
    </g>
    <g id="ytick_4">
     <g id="line2d_10">
      <g>
       <use xlink:href="#m5a4a5912ef" x="54.01375" y="201.61489" style="stroke: #000000; stroke-width: 0.8"/>
      </g>
     </g>
     <g id="text_11">
      <!-- 0.6 -->
      <g transform="translate(24.749375 206.933797) scale(0.14 -0.14)">
       <use xlink:href="#DejaVuSans-30"/>
       <use xlink:href="#DejaVuSans-2e" x="63.623047"/>
       <use xlink:href="#DejaVuSans-36" x="95.410156"/>
      </g>
     </g>
    </g>
    <g id="ytick_5">
     <g id="line2d_11">
      <g>
       <use xlink:href="#m5a4a5912ef" x="54.01375" y="122.602856" style="stroke: #000000; stroke-width: 0.8"/>
      </g>
     </g>
     <g id="text_12">
      <!-- 0.8 -->
      <g transform="translate(24.749375 127.921762) scale(0.14 -0.14)">
       <use xlink:href="#DejaVuSans-30"/>
       <use xlink:href="#DejaVuSans-2e" x="63.623047"/>
       <use xlink:href="#DejaVuSans-38" x="95.410156"/>
      </g>
     </g>
    </g>
    <g id="ytick_6">
     <g id="line2d_12">
      <g>
       <use xlink:href="#m5a4a5912ef" x="54.01375" y="43.590821" style="stroke: #000000; stroke-width: 0.8"/>
      </g>
     </g>
     <g id="text_13">
      <!-- 1.0 -->
      <g transform="translate(24.749375 48.909727) scale(0.14 -0.14)">
       <use xlink:href="#DejaVuSans-31"/>
       <use xlink:href="#DejaVuSans-2e" x="63.623047"/>
       <use xlink:href="#DejaVuSans-30" x="95.410156"/>
      </g>
     </g>
    </g>
    <g id="text_14">
     <!-- [-] -->
     <g transform="translate(17.837812 239.23206) rotate(-90) scale(0.14 -0.14)">
      <defs>
       <path id="DejaVuSans-5b" d="M 550 4863 
L 1875 4863 
L 1875 4416 
L 1125 4416 
L 1125 -397 
L 1875 -397 
L 1875 -844 
L 550 -844 
L 550 4863 
z
" transform="scale(0.015625)"/>
       <path id="DejaVuSans-2d" d="M 313 2009 
L 1997 2009 
L 1997 1497 
L 313 1497 
L 313 2009 
z
" transform="scale(0.015625)"/>
       <path id="DejaVuSans-5d" d="M 1947 4863 
L 1947 -844 
L 622 -844 
L 622 -397 
L 1369 -397 
L 1369 4416 
L 622 4416 
L 622 4863 
L 1947 4863 
z
" transform="scale(0.015625)"/>
      </defs>
      <use xlink:href="#DejaVuSans-5b"/>
      <use xlink:href="#DejaVuSans-2d" x="39.013672"/>
      <use xlink:href="#DejaVuSans-5d" x="75.097656"/>
     </g>
    </g>
   </g>
   <g id="line2d_13">
    <path d="M 84.719475 430.82802 
L 128.584798 379.640023 
L 172.45012 334.739385 
L 216.315442 295.03473 
L 260.180764 259.673457 
L 304.046086 227.979828 
L 347.911408 199.411367 
L 391.77673 173.527556 
L 435.642052 149.966951 
L 479.507374 128.430208 
L 523.372696 108.667289 
L 567.238018 90.467717 
L 611.10334 73.653048 
L 654.968662 58.070998 
L 698.833985 43.590821 
" clip-path="url(#p5611107b58)" style="fill: none; stroke-dasharray: 7.4,3.2; stroke-dashoffset: 0; stroke: #1f77b4; stroke-width: 2"/>
   </g>
   <g id="line2d_14">
    <path d="M 84.719475 47.541423 
L 128.584798 75.477821 
L 172.45012 103.414219 
L 216.315442 131.350617 
L 260.180764 159.287015 
L 304.046086 187.223413 
L 347.911408 215.159811 
L 391.77673 243.096209 
L 435.642052 271.032606 
L 479.507374 298.969004 
L 523.372696 326.905402 
L 567.238018 354.8418 
L 611.10334 382.778198 
L 654.968662 410.714596 
L 698.833985 438.650994 
" clip-path="url(#p5611107b58)" style="fill: none; stroke-dasharray: 7.4,3.2; stroke-dashoffset: 0; stroke: #ff7f0e; stroke-width: 2"/>
   </g>
   <g id="line2d_15">
    <path d="M 84.719475 241.140661 
L 128.584798 242.407776 
L 172.45012 245.650394 
L 216.315442 250.868514 
L 260.180764 258.062136 
L 304.046086 267.231261 
L 347.911408 278.375888 
L 391.77673 291.496018 
L 435.642052 306.59165 
L 479.507374 323.662785 
L 523.372696 342.709422 
L 567.238018 363.731561 
L 611.10334 386.729203 
L 654.968662 411.702347 
L 698.833985 438.650994 
" clip-path="url(#p5611107b58)" style="fill: none; stroke-dasharray: 7.4,3.2; stroke-dashoffset: 0; stroke: #2ca02c; stroke-width: 2"/>
   </g>
   <g id="patch_3">
    <path d="M 54.01375 438.650994 
L 54.01375 23.837812 
" style="fill: none; stroke: #000000; stroke-width: 0.8; stroke-linejoin: miter; stroke-linecap: square"/>
   </g>
   <g id="patch_4">
    <path d="M 729.53971 438.650994 
L 729.53971 23.837812 
" style="fill: none; stroke: #000000; stroke-width: 0.8; stroke-linejoin: miter; stroke-linecap: square"/>
   </g>
   <g id="patch_5">
    <path d="M 54.01375 438.650994 
L 729.53971 438.650994 
" style="fill: none; stroke: #000000; stroke-width: 0.8; stroke-linejoin: miter; stroke-linecap: square"/>
   </g>
   <g id="patch_6">
    <path d="M 54.01375 23.837812 
L 729.53971 23.837812 
" style="fill: none; stroke: #000000; stroke-width: 0.8; stroke-linejoin: miter; stroke-linecap: square"/>
   </g>
   <g id="text_15">
    <!-- 1 -->
    <g transform="translate(271.728432 163.847337) scale(0.14 -0.14)">
     <use xlink:href="#DejaVuSans-31"/>
    </g>
   </g>
   <g id="text_16">
    <!-- 1 -->
    <g transform="translate(271.728432 257.40942) scale(0.14 -0.14)">
     <use xlink:href="#DejaVuSans-31"/>
    </g>
   </g>
   <g id="text_17">
    <!-- 1 -->
    <g transform="translate(271.728432 247.93779) scale(0.14 -0.14)">
     <use xlink:href="#DejaVuSans-31"/>
    </g>
   </g>
   <g id="text_18">
    <!-- 1 -->
    <g transform="translate(271.728432 183.100255) scale(0.14 -0.14)">
     <use xlink:href="#DejaVuSans-31"/>
    </g>
   </g>
   <g id="text_19">
    <!-- 2 -->
    <g transform="translate(325.602055 198.504233) scale(0.14 -0.14)">
     <use xlink:href="#DejaVuSans-32"/>
    </g>
   </g>
   <g id="text_20">
    <!-- 2 -->
    <g transform="translate(325.602055 269.734575) scale(0.14 -0.14)">
     <use xlink:href="#DejaVuSans-32"/>
    </g>
   </g>
   <g id="text_21">
    <!-- 2 -->
    <g transform="translate(325.602055 209.722088) scale(0.14 -0.14)">
     <use xlink:href="#DejaVuSans-32"/>
    </g>
   </g>
   <g id="text_22">
    <!-- 2 -->
    <g transform="translate(325.602055 177.479914) scale(0.14 -0.14)">
     <use xlink:href="#DejaVuSans-32"/>
    </g>
   </g>
   <g id="text_23">
    <!-- 3 -->
    <g transform="translate(366.99739 225.133891) scale(0.14 -0.14)">
     <defs>
      <path id="DejaVuSans-33" d="M 2597 2516 
Q 3050 2419 3304 2112 
Q 3559 1806 3559 1356 
Q 3559 666 3084 287 
Q 2609 -91 1734 -91 
Q 1441 -91 1130 -33 
Q 819 25 488 141 
L 488 750 
Q 750 597 1062 519 
Q 1375 441 1716 441 
Q 2309 441 2620 675 
Q 2931 909 2931 1356 
Q 2931 1769 2642 2001 
Q 2353 2234 1838 2234 
L 1294 2234 
L 1294 2753 
L 1863 2753 
Q 2328 2753 2575 2939 
Q 2822 3125 2822 3475 
Q 2822 3834 2567 4026 
Q 2313 4219 1838 4219 
Q 1578 4219 1281 4162 
Q 984 4106 628 3988 
L 628 4550 
Q 988 4650 1302 4700 
Q 1616 4750 1894 4750 
Q 2613 4750 3031 4423 
Q 3450 4097 3450 3541 
Q 3450 3153 3228 2886 
Q 3006 2619 2597 2516 
z
" transform="scale(0.015625)"/>
     </defs>
     <use xlink:href="#DejaVuSans-33"/>
    </g>
   </g>
   <g id="text_24">
    <!-- 3 -->
    <g transform="translate(366.99739 281.270518) scale(0.14 -0.14)">
     <use xlink:href="#DejaVuSans-33"/>
    </g>
   </g>
   <g id="text_25">
    <!-- 3 -->
    <g transform="translate(366.99739 183.802971) scale(0.14 -0.14)">
     <use xlink:href="#DejaVuSans-33"/>
    </g>
   </g>
   <g id="text_26">
    <!-- 3 -->
    <g transform="translate(366.99739 171.216486) scale(0.14 -0.14)">
     <use xlink:href="#DejaVuSans-33"/>
    </g>
   </g>
   <g id="text_27">
    <!-- 4 -->
    <g transform="translate(414.269234 255.543873) scale(0.14 -0.14)">
     <use xlink:href="#DejaVuSans-34"/>
    </g>
   </g>
   <g id="text_28">
    <!-- 4 -->
    <g transform="translate(414.269234 296.63944) scale(0.14 -0.14)">
     <use xlink:href="#DejaVuSans-34"/>
    </g>
   </g>
   <g id="text_29">
    <!-- 4 -->
    <g transform="translate(414.269234 156.879001) scale(0.14 -0.14)">
     <use xlink:href="#DejaVuSans-34"/>
    </g>
   </g>
   <g id="text_30">
    <!-- 4 -->
    <g transform="translate(414.269234 171.010903) scale(0.14 -0.14)">
     <use xlink:href="#DejaVuSans-34"/>
    </g>
   </g>
   <g id="text_31">
    <!-- 5 -->
    <g transform="translate(450.358097 278.759871) scale(0.14 -0.14)">
     <defs>
      <path id="DejaVuSans-35" d="M 691 4666 
L 3169 4666 
L 3169 4134 
L 1269 4134 
L 1269 2991 
Q 1406 3038 1543 3061 
Q 1681 3084 1819 3084 
Q 2600 3084 3056 2656 
Q 3513 2228 3513 1497 
Q 3513 744 3044 326 
Q 2575 -91 1722 -91 
Q 1428 -91 1123 -41 
Q 819 9 494 109 
L 494 744 
Q 775 591 1075 516 
Q 1375 441 1709 441 
Q 2250 441 2565 725 
Q 2881 1009 2881 1497 
Q 2881 1984 2565 2268 
Q 2250 2553 1709 2553 
Q 1456 2553 1204 2497 
Q 953 2441 691 2322 
L 691 4666 
z
" transform="scale(0.015625)"/>
     </defs>
     <use xlink:href="#DejaVuSans-35"/>
    </g>
   </g>
   <g id="text_32">
    <!-- 5 -->
    <g transform="translate(450.358097 309.94826) scale(0.14 -0.14)">
     <use xlink:href="#DejaVuSans-35"/>
    </g>
   </g>
   <g id="text_33">
    <!-- 5 -->
    <g transform="translate(450.358097 138.421052) scale(0.14 -0.14)">
     <use xlink:href="#DejaVuSans-35"/>
    </g>
   </g>
   <g id="text_34">
    <!-- 5 -->
    <g transform="translate(450.358097 167.498134) scale(0.14 -0.14)">
     <use xlink:href="#DejaVuSans-35"/>
    </g>
   </g>
   <g id="text_35">
    <!-- 6 -->
    <g transform="translate(499.798006 310.564584) scale(0.14 -0.14)">
     <use xlink:href="#DejaVuSans-36"/>
    </g>
   </g>
   <g id="text_36">
    <!-- 6 -->
    <g transform="translate(499.798006 330.395416) scale(0.14 -0.14)">
     <use xlink:href="#DejaVuSans-36"/>
    </g>
   </g>
   <g id="text_37">
    <!-- 6 -->
    <g transform="translate(499.798006 114.959322) scale(0.14 -0.14)">
     <use xlink:href="#DejaVuSans-36"/>
    </g>
   </g>
   <g id="text_38">
    <!-- 6 -->
    <g transform="translate(499.798006 158.411301) scale(0.14 -0.14)">
     <use xlink:href="#DejaVuSans-36"/>
    </g>
   </g>
   <g id="text_39">
    <!-- 7 -->
    <g transform="translate(528.783057 329.210681) scale(0.14 -0.14)">
     <defs>
      <path id="DejaVuSans-37" d="M 525 4666 
L 3525 4666 
L 3525 4397 
L 1831 0 
L 1172 0 
L 2766 4134 
L 525 4134 
L 525 4666 
z
" transform="scale(0.015625)"/>
     </defs>
     <use xlink:href="#DejaVuSans-37"/>
    </g>
   </g>
   <g id="text_40">
    <!-- 7 -->
    <g transform="translate(528.783057 343.573527) scale(0.14 -0.14)">
     <use xlink:href="#DejaVuSans-37"/>
    </g>
   </g>
   <g id="text_41">
    <!-- 7 -->
    <g transform="translate(528.783057 101.18121) scale(0.14 -0.14)">
     <use xlink:href="#DejaVuSans-37"/>
    </g>
   </g>
   <g id="text_42">
    <!-- 7 -->
    <g transform="translate(528.783057 154.904398) scale(0.14 -0.14)">
     <use xlink:href="#DejaVuSans-37"/>
    </g>
   </g>
   <g id="text_43">
    <!-- 8 -->
    <g transform="translate(560.339174 349.510751) scale(0.14 -0.14)">
     <use xlink:href="#DejaVuSans-38"/>
    </g>
   </g>
   <g id="text_44">
    <!-- 8 -->
    <g transform="translate(560.339174 358.921197) scale(0.14 -0.14)">
     <use xlink:href="#DejaVuSans-38"/>
    </g>
   </g>
   <g id="text_45">
    <!-- 8 -->
    <g transform="translate(560.339174 88.723135) scale(0.14 -0.14)">
     <use xlink:href="#DejaVuSans-38"/>
    </g>
   </g>
   <g id="text_46">
    <!-- 8 -->
    <g transform="translate(560.339174 154.64215) scale(0.14 -0.14)">
     <use xlink:href="#DejaVuSans-38"/>
    </g>
   </g>
   <g id="text_47">
    <!-- 9 -->
    <g transform="translate(590.461291 368.888324) scale(0.14 -0.14)">
     <defs>
      <path id="DejaVuSans-39" d="M 703 97 
L 703 672 
Q 941 559 1184 500 
Q 1428 441 1663 441 
Q 2288 441 2617 861 
Q 2947 1281 2994 2138 
Q 2813 1869 2534 1725 
Q 2256 1581 1919 1581 
Q 1219 1581 811 2004 
Q 403 2428 403 3163 
Q 403 3881 828 4315 
Q 1253 4750 1959 4750 
Q 2769 4750 3195 4129 
Q 3622 3509 3622 2328 
Q 3622 1225 3098 567 
Q 2575 -91 1691 -91 
Q 1453 -91 1209 -44 
Q 966 3 703 97 
z
M 1959 2075 
Q 2384 2075 2632 2365 
Q 2881 2656 2881 3163 
Q 2881 3666 2632 3958 
Q 2384 4250 1959 4250 
Q 1534 4250 1286 3958 
Q 1038 3666 1038 3163 
Q 1038 2656 1286 2365 
Q 1534 2075 1959 2075 
z
" transform="scale(0.015625)"/>
     </defs>
     <use xlink:href="#DejaVuSans-39"/>
    </g>
   </g>
   <g id="text_48">
    <!-- 9 -->
    <g transform="translate(590.461291 374.544513) scale(0.14 -0.14)">
     <use xlink:href="#DejaVuSans-39"/>
    </g>
   </g>
   <g id="text_49">
    <!-- 9 -->
    <g transform="translate(590.461291 77.013617) scale(0.14 -0.14)">
     <use xlink:href="#DejaVuSans-39"/>
    </g>
   </g>
   <g id="text_50">
    <!-- 9 -->
    <g transform="translate(590.461291 155.551299) scale(0.14 -0.14)">
     <use xlink:href="#DejaVuSans-39"/>
    </g>
   </g>
   <g id="text_51">
    <!-- 10 -->
    <g transform="translate(606.207717 381.883107) scale(0.14 -0.14)">
     <use xlink:href="#DejaVuSans-31"/>
     <use xlink:href="#DejaVuSans-30" x="63.623047"/>
    </g>
   </g>
   <g id="text_52">
    <!-- 10 -->
    <g transform="translate(606.207717 385.554071) scale(0.14 -0.14)">
     <use xlink:href="#DejaVuSans-31"/>
     <use xlink:href="#DejaVuSans-30" x="63.623047"/>
    </g>
   </g>
   <g id="text_53">
    <!-- 10 -->
    <g transform="translate(606.207717 69.802447) scale(0.14 -0.14)">
     <use xlink:href="#DejaVuSans-31"/>
     <use xlink:href="#DejaVuSans-30" x="63.623047"/>
    </g>
   </g>
   <g id="text_54">
    <!-- 10 -->
    <g transform="translate(606.207717 156.381186) scale(0.14 -0.14)">
     <use xlink:href="#DejaVuSans-31"/>
     <use xlink:href="#DejaVuSans-30" x="63.623047"/>
    </g>
   </g>
   <g id="text_55">
    <!-- 11 -->
    <g transform="translate(630.393412 397.441778) scale(0.14 -0.14)">
     <use xlink:href="#DejaVuSans-31"/>
     <use xlink:href="#DejaVuSans-31" x="63.623047"/>
    </g>
   </g>
   <g id="text_56">
    <!-- 11 -->
    <g transform="translate(630.393412 399.298089) scale(0.14 -0.14)">
     <use xlink:href="#DejaVuSans-31"/>
     <use xlink:href="#DejaVuSans-31" x="63.623047"/>
    </g>
   </g>
   <g id="text_57">
    <!-- 11 -->
    <g transform="translate(630.393412 61.848653) scale(0.14 -0.14)">
     <use xlink:href="#DejaVuSans-31"/>
     <use xlink:href="#DejaVuSans-31" x="63.623047"/>
    </g>
   </g>
   <g id="text_58">
    <!-- 11 -->
    <g transform="translate(630.393412 165.245983) scale(0.14 -0.14)">
     <use xlink:href="#DejaVuSans-31"/>
     <use xlink:href="#DejaVuSans-31" x="63.623047"/>
    </g>
   </g>
   <g id="text_59">
    <!-- 12 -->
    <g transform="translate(649.588562 409.790027) scale(0.14 -0.14)">
     <use xlink:href="#DejaVuSans-31"/>
     <use xlink:href="#DejaVuSans-32" x="63.623047"/>
    </g>
   </g>
   <g id="text_60">
    <!-- 12 -->
    <g transform="translate(649.588562 410.642265) scale(0.14 -0.14)">
     <use xlink:href="#DejaVuSans-31"/>
     <use xlink:href="#DejaVuSans-32" x="63.623047"/>
    </g>
   </g>
   <g id="text_61">
    <!-- 12 -->
    <g transform="translate(649.588562 53.747884) scale(0.14 -0.14)">
     <use xlink:href="#DejaVuSans-31"/>
     <use xlink:href="#DejaVuSans-32" x="63.623047"/>
    </g>
   </g>
   <g id="text_62">
    <!-- 12 -->
    <g transform="translate(649.588562 177.519463) scale(0.14 -0.14)">
     <use xlink:href="#DejaVuSans-31"/>
     <use xlink:href="#DejaVuSans-32" x="63.623047"/>
    </g>
   </g>
   <g id="text_63">
    <!-- 13 -->
    <g transform="translate(664.53405 419.404466) scale(0.14 -0.14)">
     <use xlink:href="#DejaVuSans-31"/>
     <use xlink:href="#DejaVuSans-33" x="63.623047"/>
    </g>
   </g>
   <g id="text_64">
    <!-- 13 -->
    <g transform="translate(664.53405 419.742175) scale(0.14 -0.14)">
     <use xlink:href="#DejaVuSans-31"/>
     <use xlink:href="#DejaVuSans-33" x="63.623047"/>
    </g>
   </g>
   <g id="text_65">
    <!-- 13 -->
    <g transform="translate(664.53405 47.497921) scale(0.14 -0.14)">
     <use xlink:href="#DejaVuSans-31"/>
     <use xlink:href="#DejaVuSans-33" x="63.623047"/>
    </g>
   </g>
   <g id="text_66">
    <!-- 13 -->
    <g transform="translate(664.53405 210.218222) scale(0.14 -0.14)">
     <use xlink:href="#DejaVuSans-31"/>
     <use xlink:href="#DejaVuSans-33" x="63.623047"/>
    </g>
   </g>
   <g id="text_67">
    <!-- 14 -->
    <g transform="translate(677.749433 427.905928) scale(0.14 -0.14)">
     <use xlink:href="#DejaVuSans-31"/>
     <use xlink:href="#DejaVuSans-34" x="63.623047"/>
    </g>
   </g>
   <g id="text_68">
    <!-- 14 -->
    <g transform="translate(677.749433 427.983592) scale(0.14 -0.14)">
     <use xlink:href="#DejaVuSans-31"/>
     <use xlink:href="#DejaVuSans-34" x="63.623047"/>
    </g>
   </g>
   <g id="text_69">
    <!-- 14 -->
    <g transform="translate(677.749433 43.693469) scale(0.14 -0.14)">
     <use xlink:href="#DejaVuSans-31"/>
     <use xlink:href="#DejaVuSans-34" x="63.623047"/>
    </g>
   </g>
   <g id="text_70">
    <!-- 14 -->
    <g transform="translate(677.749433 266.946067) scale(0.14 -0.14)">
     <use xlink:href="#DejaVuSans-31"/>
     <use xlink:href="#DejaVuSans-34" x="63.623047"/>
    </g>
   </g>
   <g id="text_71">
    <!-- 15 -->
    <g transform="translate(686.818075 433.73979) scale(0.14 -0.14)">
     <use xlink:href="#DejaVuSans-31"/>
     <use xlink:href="#DejaVuSans-35" x="63.623047"/>
    </g>
   </g>
   <g id="text_72">
    <!-- 15 -->
    <g transform="translate(686.818075 433.744851) scale(0.14 -0.14)">
     <use xlink:href="#DejaVuSans-31"/>
     <use xlink:href="#DejaVuSans-35" x="63.623047"/>
    </g>
   </g>
   <g id="text_73">
    <!-- 15 -->
    <g transform="translate(686.818075 47.26827) scale(0.14 -0.14)">
     <use xlink:href="#DejaVuSans-31"/>
     <use xlink:href="#DejaVuSans-35" x="63.623047"/>
    </g>
   </g>
   <g id="text_74">
    <!-- 15 -->
    <g transform="translate(686.818075 369.448876) scale(0.14 -0.14)">
     <use xlink:href="#DejaVuSans-31"/>
     <use xlink:href="#DejaVuSans-35" x="63.623047"/>
    </g>
   </g>
   <g id="text_75">
    <!-- ance Propeller (Diameter: 8.5 in, RPM: 4000) -->
    <g transform="translate(214.472199 17.837812) scale(0.14 -0.14)">
     <defs>
      <path id="DejaVuSans-Bold-61" d="M 2106 1575 
Q 1756 1575 1579 1456 
Q 1403 1338 1403 1106 
Q 1403 894 1545 773 
Q 1688 653 1941 653 
Q 2256 653 2472 879 
Q 2688 1106 2688 1447 
L 2688 1575 
L 2106 1575 
z
M 3816 1997 
L 3816 0 
L 2688 0 
L 2688 519 
Q 2463 200 2181 54 
Q 1900 -91 1497 -91 
Q 953 -91 614 226 
Q 275 544 275 1050 
Q 275 1666 698 1953 
Q 1122 2241 2028 2241 
L 2688 2241 
L 2688 2328 
Q 2688 2594 2478 2717 
Q 2269 2841 1825 2841 
Q 1466 2841 1156 2769 
Q 847 2697 581 2553 
L 581 3406 
Q 941 3494 1303 3539 
Q 1666 3584 2028 3584 
Q 2975 3584 3395 3211 
Q 3816 2838 3816 1997 
z
" transform="scale(0.015625)"/>
      <path id="DejaVuSans-Bold-6e" d="M 4056 2131 
L 4056 0 
L 2931 0 
L 2931 347 
L 2931 1631 
Q 2931 2084 2911 2256 
Q 2891 2428 2841 2509 
Q 2775 2619 2662 2680 
Q 2550 2741 2406 2741 
Q 2056 2741 1856 2470 
Q 1656 2200 1656 1722 
L 1656 0 
L 538 0 
L 538 3500 
L 1656 3500 
L 1656 2988 
Q 1909 3294 2193 3439 
Q 2478 3584 2822 3584 
Q 3428 3584 3742 3212 
Q 4056 2841 4056 2131 
z
" transform="scale(0.015625)"/>
      <path id="DejaVuSans-Bold-63" d="M 3366 3391 
L 3366 2478 
Q 3138 2634 2908 2709 
Q 2678 2784 2431 2784 
Q 1963 2784 1702 2511 
Q 1441 2238 1441 1747 
Q 1441 1256 1702 982 
Q 1963 709 2431 709 
Q 2694 709 2930 787 
Q 3166 866 3366 1019 
L 3366 103 
Q 3103 6 2833 -42 
Q 2563 -91 2291 -91 
Q 1344 -91 809 395 
Q 275 881 275 1747 
Q 275 2613 809 3098 
Q 1344 3584 2291 3584 
Q 2566 3584 2833 3536 
Q 3100 3488 3366 3391 
z
" transform="scale(0.015625)"/>
      <path id="DejaVuSans-Bold-65" d="M 4031 1759 
L 4031 1441 
L 1416 1441 
Q 1456 1047 1700 850 
Q 1944 653 2381 653 
Q 2734 653 3104 758 
Q 3475 863 3866 1075 
L 3866 213 
Q 3469 63 3072 -14 
Q 2675 -91 2278 -91 
Q 1328 -91 801 392 
Q 275 875 275 1747 
Q 275 2603 792 3093 
Q 1309 3584 2216 3584 
Q 3041 3584 3536 3087 
Q 4031 2591 4031 1759 
z
M 2881 2131 
Q 2881 2450 2695 2645 
Q 2509 2841 2209 2841 
Q 1884 2841 1681 2658 
Q 1478 2475 1428 2131 
L 2881 2131 
z
" transform="scale(0.015625)"/>
      <path id="DejaVuSans-Bold-20" transform="scale(0.015625)"/>
      <path id="DejaVuSans-Bold-50" d="M 588 4666 
L 2584 4666 
Q 3475 4666 3951 4270 
Q 4428 3875 4428 3144 
Q 4428 2409 3951 2014 
Q 3475 1619 2584 1619 
L 1791 1619 
L 1791 0 
L 588 0 
L 588 4666 
z
M 1791 3794 
L 1791 2491 
L 2456 2491 
Q 2806 2491 2997 2661 
Q 3188 2831 3188 3144 
Q 3188 3456 2997 3625 
Q 2806 3794 2456 3794 
L 1791 3794 
z
" transform="scale(0.015625)"/>
      <path id="DejaVuSans-Bold-72" d="M 3138 2547 
Q 2991 2616 2845 2648 
Q 2700 2681 2553 2681 
Q 2122 2681 1889 2404 
Q 1656 2128 1656 1613 
L 1656 0 
L 538 0 
L 538 3500 
L 1656 3500 
L 1656 2925 
Q 1872 3269 2151 3426 
Q 2431 3584 2822 3584 
Q 2878 3584 2943 3579 
Q 3009 3575 3134 3559 
L 3138 2547 
z
" transform="scale(0.015625)"/>
      <path id="DejaVuSans-Bold-6f" d="M 2203 2784 
Q 1831 2784 1636 2517 
Q 1441 2250 1441 1747 
Q 1441 1244 1636 976 
Q 1831 709 2203 709 
Q 2569 709 2762 976 
Q 2956 1244 2956 1747 
Q 2956 2250 2762 2517 
Q 2569 2784 2203 2784 
z
M 2203 3584 
Q 3106 3584 3614 3096 
Q 4122 2609 4122 1747 
Q 4122 884 3614 396 
Q 3106 -91 2203 -91 
Q 1297 -91 786 396 
Q 275 884 275 1747 
Q 275 2609 786 3096 
Q 1297 3584 2203 3584 
z
" transform="scale(0.015625)"/>
      <path id="DejaVuSans-Bold-70" d="M 1656 506 
L 1656 -1331 
L 538 -1331 
L 538 3500 
L 1656 3500 
L 1656 2988 
Q 1888 3294 2169 3439 
Q 2450 3584 2816 3584 
Q 3463 3584 3878 3070 
Q 4294 2556 4294 1747 
Q 4294 938 3878 423 
Q 3463 -91 2816 -91 
Q 2450 -91 2169 54 
Q 1888 200 1656 506 
z
M 2400 2772 
Q 2041 2772 1848 2508 
Q 1656 2244 1656 1747 
Q 1656 1250 1848 986 
Q 2041 722 2400 722 
Q 2759 722 2948 984 
Q 3138 1247 3138 1747 
Q 3138 2247 2948 2509 
Q 2759 2772 2400 2772 
z
" transform="scale(0.015625)"/>
      <path id="DejaVuSans-Bold-6c" d="M 538 4863 
L 1656 4863 
L 1656 0 
L 538 0 
L 538 4863 
z
" transform="scale(0.015625)"/>
      <path id="DejaVuSans-Bold-28" d="M 2413 -844 
L 1484 -844 
Q 1006 -72 778 623 
Q 550 1319 550 2003 
Q 550 2688 779 3389 
Q 1009 4091 1484 4856 
L 2413 4856 
Q 2013 4116 1813 3408 
Q 1613 2700 1613 2009 
Q 1613 1319 1811 609 
Q 2009 -100 2413 -844 
z
" transform="scale(0.015625)"/>
      <path id="DejaVuSans-Bold-44" d="M 1791 3756 
L 1791 909 
L 2222 909 
Q 2959 909 3348 1275 
Q 3738 1641 3738 2338 
Q 3738 3031 3350 3393 
Q 2963 3756 2222 3756 
L 1791 3756 
z
M 588 4666 
L 1856 4666 
Q 2919 4666 3439 4514 
Q 3959 4363 4331 4000 
Q 4659 3684 4818 3271 
Q 4978 2859 4978 2338 
Q 4978 1809 4818 1395 
Q 4659 981 4331 666 
Q 3956 303 3431 151 
Q 2906 0 1856 0 
L 588 0 
L 588 4666 
z
" transform="scale(0.015625)"/>
      <path id="DejaVuSans-Bold-69" d="M 538 3500 
L 1656 3500 
L 1656 0 
L 538 0 
L 538 3500 
z
M 538 4863 
L 1656 4863 
L 1656 3950 
L 538 3950 
L 538 4863 
z
" transform="scale(0.015625)"/>
      <path id="DejaVuSans-Bold-6d" d="M 3781 2919 
Q 3994 3244 4286 3414 
Q 4578 3584 4928 3584 
Q 5531 3584 5847 3212 
Q 6163 2841 6163 2131 
L 6163 0 
L 5038 0 
L 5038 1825 
Q 5041 1866 5042 1909 
Q 5044 1953 5044 2034 
Q 5044 2406 4934 2573 
Q 4825 2741 4581 2741 
Q 4263 2741 4089 2478 
Q 3916 2216 3909 1719 
L 3909 0 
L 2784 0 
L 2784 1825 
Q 2784 2406 2684 2573 
Q 2584 2741 2328 2741 
Q 2006 2741 1831 2477 
Q 1656 2213 1656 1722 
L 1656 0 
L 531 0 
L 531 3500 
L 1656 3500 
L 1656 2988 
Q 1863 3284 2130 3434 
Q 2397 3584 2719 3584 
Q 3081 3584 3359 3409 
Q 3638 3234 3781 2919 
z
" transform="scale(0.015625)"/>
      <path id="DejaVuSans-Bold-74" d="M 1759 4494 
L 1759 3500 
L 2913 3500 
L 2913 2700 
L 1759 2700 
L 1759 1216 
Q 1759 972 1856 886 
Q 1953 800 2241 800 
L 2816 800 
L 2816 0 
L 1856 0 
Q 1194 0 917 276 
Q 641 553 641 1216 
L 641 2700 
L 84 2700 
L 84 3500 
L 641 3500 
L 641 4494 
L 1759 4494 
z
" transform="scale(0.015625)"/>
      <path id="DejaVuSans-Bold-3a" d="M 716 3500 
L 1844 3500 
L 1844 2291 
L 716 2291 
L 716 3500 
z
M 716 1209 
L 1844 1209 
L 1844 0 
L 716 0 
L 716 1209 
z
" transform="scale(0.015625)"/>
      <path id="DejaVuSans-Bold-38" d="M 2228 2088 
Q 1891 2088 1709 1903 
Q 1528 1719 1528 1375 
Q 1528 1031 1709 848 
Q 1891 666 2228 666 
Q 2563 666 2741 848 
Q 2919 1031 2919 1375 
Q 2919 1722 2741 1905 
Q 2563 2088 2228 2088 
z
M 1350 2484 
Q 925 2613 709 2878 
Q 494 3144 494 3541 
Q 494 4131 934 4440 
Q 1375 4750 2228 4750 
Q 3075 4750 3515 4442 
Q 3956 4134 3956 3541 
Q 3956 3144 3739 2878 
Q 3522 2613 3097 2484 
Q 3572 2353 3814 2058 
Q 4056 1763 4056 1313 
Q 4056 619 3595 264 
Q 3134 -91 2228 -91 
Q 1319 -91 855 264 
Q 391 619 391 1313 
Q 391 1763 633 2058 
Q 875 2353 1350 2484 
z
M 1631 3419 
Q 1631 3141 1786 2991 
Q 1941 2841 2228 2841 
Q 2509 2841 2662 2991 
Q 2816 3141 2816 3419 
Q 2816 3697 2662 3845 
Q 2509 3994 2228 3994 
Q 1941 3994 1786 3844 
Q 1631 3694 1631 3419 
z
" transform="scale(0.015625)"/>
      <path id="DejaVuSans-Bold-2e" d="M 653 1209 
L 1778 1209 
L 1778 0 
L 653 0 
L 653 1209 
z
" transform="scale(0.015625)"/>
      <path id="DejaVuSans-Bold-35" d="M 678 4666 
L 3669 4666 
L 3669 3781 
L 1638 3781 
L 1638 3059 
Q 1775 3097 1914 3117 
Q 2053 3138 2203 3138 
Q 3056 3138 3531 2711 
Q 4006 2284 4006 1522 
Q 4006 766 3489 337 
Q 2972 -91 2053 -91 
Q 1656 -91 1267 -14 
Q 878 63 494 219 
L 494 1166 
Q 875 947 1217 837 
Q 1559 728 1863 728 
Q 2300 728 2551 942 
Q 2803 1156 2803 1522 
Q 2803 1891 2551 2103 
Q 2300 2316 1863 2316 
Q 1603 2316 1309 2248 
Q 1016 2181 678 2041 
L 678 4666 
z
" transform="scale(0.015625)"/>
      <path id="DejaVuSans-Bold-2c" d="M 653 1209 
L 1778 1209 
L 1778 256 
L 1006 -909 
L 341 -909 
L 653 256 
L 653 1209 
z
" transform="scale(0.015625)"/>
      <path id="DejaVuSans-Bold-52" d="M 2297 2597 
Q 2675 2597 2839 2737 
Q 3003 2878 3003 3200 
Q 3003 3519 2839 3656 
Q 2675 3794 2297 3794 
L 1791 3794 
L 1791 2597 
L 2297 2597 
z
M 1791 1766 
L 1791 0 
L 588 0 
L 588 4666 
L 2425 4666 
Q 3347 4666 3776 4356 
Q 4206 4047 4206 3378 
Q 4206 2916 3982 2619 
Q 3759 2322 3309 2181 
Q 3556 2125 3751 1926 
Q 3947 1728 4147 1325 
L 4800 0 
L 3519 0 
L 2950 1159 
Q 2778 1509 2601 1637 
Q 2425 1766 2131 1766 
L 1791 1766 
z
" transform="scale(0.015625)"/>
      <path id="DejaVuSans-Bold-4d" d="M 588 4666 
L 2119 4666 
L 3181 2169 
L 4250 4666 
L 5778 4666 
L 5778 0 
L 4641 0 
L 4641 3413 
L 3566 897 
L 2803 897 
L 1728 3413 
L 1728 0 
L 588 0 
L 588 4666 
z
" transform="scale(0.015625)"/>
      <path id="DejaVuSans-Bold-34" d="M 2356 3675 
L 1038 1722 
L 2356 1722 
L 2356 3675 
z
M 2156 4666 
L 3494 4666 
L 3494 1722 
L 4159 1722 
L 4159 850 
L 3494 850 
L 3494 0 
L 2356 0 
L 2356 850 
L 288 850 
L 288 1881 
L 2156 4666 
z
" transform="scale(0.015625)"/>
      <path id="DejaVuSans-Bold-30" d="M 2944 2338 
Q 2944 3213 2780 3570 
Q 2616 3928 2228 3928 
Q 1841 3928 1675 3570 
Q 1509 3213 1509 2338 
Q 1509 1453 1675 1090 
Q 1841 728 2228 728 
Q 2613 728 2778 1090 
Q 2944 1453 2944 2338 
z
M 4147 2328 
Q 4147 1169 3647 539 
Q 3147 -91 2228 -91 
Q 1306 -91 806 539 
Q 306 1169 306 2328 
Q 306 3491 806 4120 
Q 1306 4750 2228 4750 
Q 3147 4750 3647 4120 
Q 4147 3491 4147 2328 
z
" transform="scale(0.015625)"/>
      <path id="DejaVuSans-Bold-29" d="M 513 -844 
Q 913 -100 1113 609 
Q 1313 1319 1313 2009 
Q 1313 2700 1113 3408 
Q 913 4116 513 4856 
L 1441 4856 
Q 1916 4091 2145 3389 
Q 2375 2688 2375 2003 
Q 2375 1319 2147 623 
Q 1919 -72 1441 -844 
L 513 -844 
z
" transform="scale(0.015625)"/>
     </defs>
     <use xlink:href="#DejaVuSans-Bold-61"/>
     <use xlink:href="#DejaVuSans-Bold-6e" x="67.480469"/>
     <use xlink:href="#DejaVuSans-Bold-63" x="138.671875"/>
     <use xlink:href="#DejaVuSans-Bold-65" x="197.949219"/>
     <use xlink:href="#DejaVuSans-Bold-20" x="265.771484"/>
     <use xlink:href="#DejaVuSans-Bold-50" x="300.585938"/>
     <use xlink:href="#DejaVuSans-Bold-72" x="373.876953"/>
     <use xlink:href="#DejaVuSans-Bold-6f" x="423.193359"/>
     <use xlink:href="#DejaVuSans-Bold-70" x="491.894531"/>
     <use xlink:href="#DejaVuSans-Bold-65" x="563.476562"/>
     <use xlink:href="#DejaVuSans-Bold-6c" x="631.298828"/>
     <use xlink:href="#DejaVuSans-Bold-6c" x="665.576172"/>
     <use xlink:href="#DejaVuSans-Bold-65" x="699.853516"/>
     <use xlink:href="#DejaVuSans-Bold-72" x="767.675781"/>
     <use xlink:href="#DejaVuSans-Bold-20" x="816.992188"/>
     <use xlink:href="#DejaVuSans-Bold-28" x="851.806641"/>
     <use xlink:href="#DejaVuSans-Bold-44" x="897.509766"/>
     <use xlink:href="#DejaVuSans-Bold-69" x="980.517578"/>
     <use xlink:href="#DejaVuSans-Bold-61" x="1014.794922"/>
     <use xlink:href="#DejaVuSans-Bold-6d" x="1082.275391"/>
     <use xlink:href="#DejaVuSans-Bold-65" x="1186.474609"/>
     <use xlink:href="#DejaVuSans-Bold-74" x="1254.296875"/>
     <use xlink:href="#DejaVuSans-Bold-65" x="1302.099609"/>
     <use xlink:href="#DejaVuSans-Bold-72" x="1369.921875"/>
     <use xlink:href="#DejaVuSans-Bold-3a" x="1419.238281"/>
     <use xlink:href="#DejaVuSans-Bold-20" x="1459.228516"/>
     <use xlink:href="#DejaVuSans-Bold-38" x="1494.042969"/>
     <use xlink:href="#DejaVuSans-Bold-2e" x="1563.623047"/>
     <use xlink:href="#DejaVuSans-Bold-35" x="1601.611328"/>
     <use xlink:href="#DejaVuSans-Bold-20" x="1671.191406"/>
     <use xlink:href="#DejaVuSans-Bold-69" x="1706.005859"/>
     <use xlink:href="#DejaVuSans-Bold-6e" x="1740.283203"/>
     <use xlink:href="#DejaVuSans-Bold-2c" x="1811.474609"/>
     <use xlink:href="#DejaVuSans-Bold-20" x="1849.462891"/>
     <use xlink:href="#DejaVuSans-Bold-52" x="1884.277344"/>
     <use xlink:href="#DejaVuSans-Bold-50" x="1961.279297"/>
     <use xlink:href="#DejaVuSans-Bold-4d" x="2034.570312"/>
     <use xlink:href="#DejaVuSans-Bold-3a" x="2134.082031"/>
     <use xlink:href="#DejaVuSans-Bold-20" x="2174.072266"/>
     <use xlink:href="#DejaVuSans-Bold-34" x="2208.886719"/>
     <use xlink:href="#DejaVuSans-Bold-30" x="2278.466797"/>
     <use xlink:href="#DejaVuSans-Bold-30" x="2348.046875"/>
     <use xlink:href="#DejaVuSans-Bold-30" x="2417.626953"/>
     <use xlink:href="#DejaVuSans-Bold-29" x="2487.207031"/>
    </g>
   </g>
   <g id="legend_1">
    <g id="patch_7">
     <path d="M 75.924269 424.354731 
L 166.044269 424.354731 
Q 168.444269 424.354731 168.444269 421.954731 
L 168.444269 350.507543 
Q 168.444269 348.107543 166.044269 348.107543 
L 75.924269 348.107543 
Q 73.524269 348.107543 73.524269 350.507543 
L 73.524269 421.954731 
Q 73.524269 424.354731 75.924269 424.354731 
z
" style="fill: #ffffff; stroke: #cccccc; stroke-linejoin: miter"/>
    </g>
    <g id="text_76">
     <!-- Theory -->
     <g transform="translate(98.3988 362.785512) scale(0.13 -0.13)">
      <defs>
       <path id="DejaVuSans-54" d="M -19 4666 
L 3928 4666 
L 3928 4134 
L 2272 4134 
L 2272 0 
L 1638 0 
L 1638 4134 
L -19 4134 
L -19 4666 
z
" transform="scale(0.015625)"/>
       <path id="DejaVuSans-68" d="M 3513 2113 
L 3513 0 
L 2938 0 
L 2938 2094 
Q 2938 2591 2744 2837 
Q 2550 3084 2163 3084 
Q 1697 3084 1428 2787 
Q 1159 2491 1159 1978 
L 1159 0 
L 581 0 
L 581 4863 
L 1159 4863 
L 1159 2956 
Q 1366 3272 1645 3428 
Q 1925 3584 2291 3584 
Q 2894 3584 3203 3211 
Q 3513 2838 3513 2113 
z
" transform="scale(0.015625)"/>
       <path id="DejaVuSans-65" d="M 3597 1894 
L 3597 1613 
L 953 1613 
Q 991 1019 1311 708 
Q 1631 397 2203 397 
Q 2534 397 2845 478 
Q 3156 559 3463 722 
L 3463 178 
Q 3153 47 2828 -22 
Q 2503 -91 2169 -91 
Q 1331 -91 842 396 
Q 353 884 353 1716 
Q 353 2575 817 3079 
Q 1281 3584 2069 3584 
Q 2775 3584 3186 3129 
Q 3597 2675 3597 1894 
z
M 3022 2063 
Q 3016 2534 2758 2815 
Q 2500 3097 2075 3097 
Q 1594 3097 1305 2825 
Q 1016 2553 972 2059 
L 3022 2063 
z
" transform="scale(0.015625)"/>
       <path id="DejaVuSans-6f" d="M 1959 3097 
Q 1497 3097 1228 2736 
Q 959 2375 959 1747 
Q 959 1119 1226 758 
Q 1494 397 1959 397 
Q 2419 397 2687 759 
Q 2956 1122 2956 1747 
Q 2956 2369 2687 2733 
Q 2419 3097 1959 3097 
z
M 1959 3584 
Q 2709 3584 3137 3096 
Q 3566 2609 3566 1747 
Q 3566 888 3137 398 
Q 2709 -91 1959 -91 
Q 1206 -91 779 398 
Q 353 888 353 1747 
Q 353 2609 779 3096 
Q 1206 3584 1959 3584 
z
" transform="scale(0.015625)"/>
       <path id="DejaVuSans-72" d="M 2631 2963 
Q 2534 3019 2420 3045 
Q 2306 3072 2169 3072 
Q 1681 3072 1420 2755 
Q 1159 2438 1159 1844 
L 1159 0 
L 581 0 
L 581 3500 
L 1159 3500 
L 1159 2956 
Q 1341 3275 1631 3429 
Q 1922 3584 2338 3584 
Q 2397 3584 2469 3576 
Q 2541 3569 2628 3553 
L 2631 2963 
z
" transform="scale(0.015625)"/>
       <path id="DejaVuSans-79" d="M 2059 -325 
Q 1816 -950 1584 -1140 
Q 1353 -1331 966 -1331 
L 506 -1331 
L 506 -850 
L 844 -850 
Q 1081 -850 1212 -737 
Q 1344 -625 1503 -206 
L 1606 56 
L 191 3500 
L 800 3500 
L 1894 763 
L 2988 3500 
L 3597 3500 
L 2059 -325 
z
" transform="scale(0.015625)"/>
      </defs>
      <use xlink:href="#DejaVuSans-54"/>
      <use xlink:href="#DejaVuSans-68" x="61.083984"/>
      <use xlink:href="#DejaVuSans-65" x="124.462891"/>
      <use xlink:href="#DejaVuSans-6f" x="185.986328"/>
      <use xlink:href="#DejaVuSans-72" x="247.167969"/>
      <use xlink:href="#DejaVuSans-79" x="288.28125"/>
     </g>
    </g>
    <g id="line2d_16">
     <path d="M 78.324269 376.407231 
L 90.324269 376.407231 
L 102.324269 376.407231 
" style="fill: none; stroke-dasharray: 7.4,3.2; stroke-dashoffset: 0; stroke: #1f77b4; stroke-width: 2"/>
    </g>
    <g id="text_77">
     <!-- $\eta_{\mathrm{propulsive}}$ -->
     <g transform="translate(111.924269 380.607231) scale(0.12 -0.12)">
      <defs>
       <path id="DejaVuSans-Oblique-3b7" d="M 3703 2113 
L 3034 -1331 
L 2459 -1331 
L 3125 2094 
Q 3222 2591 3075 2838 
Q 2931 3084 2544 3084 
Q 2078 3084 1750 2788 
Q 1425 2491 1325 1978 
L 941 0 
L 363 0 
L 1044 3500 
L 1622 3500 
L 1516 2956 
Q 1781 3272 2094 3428 
Q 2403 3584 2769 3584 
Q 3372 3584 3609 3213 
Q 3844 2838 3703 2113 
z
" transform="scale(0.015625)"/>
       <path id="DejaVuSans-70" d="M 1159 525 
L 1159 -1331 
L 581 -1331 
L 581 3500 
L 1159 3500 
L 1159 2969 
Q 1341 3281 1617 3432 
Q 1894 3584 2278 3584 
Q 2916 3584 3314 3078 
Q 3713 2572 3713 1747 
Q 3713 922 3314 415 
Q 2916 -91 2278 -91 
Q 1894 -91 1617 61 
Q 1341 213 1159 525 
z
M 3116 1747 
Q 3116 2381 2855 2742 
Q 2594 3103 2138 3103 
Q 1681 3103 1420 2742 
Q 1159 2381 1159 1747 
Q 1159 1113 1420 752 
Q 1681 391 2138 391 
Q 2594 391 2855 752 
Q 3116 1113 3116 1747 
z
" transform="scale(0.015625)"/>
       <path id="DejaVuSans-75" d="M 544 1381 
L 544 3500 
L 1119 3500 
L 1119 1403 
Q 1119 906 1312 657 
Q 1506 409 1894 409 
Q 2359 409 2629 706 
Q 2900 1003 2900 1516 
L 2900 3500 
L 3475 3500 
L 3475 0 
L 2900 0 
L 2900 538 
Q 2691 219 2414 64 
Q 2138 -91 1772 -91 
Q 1169 -91 856 284 
Q 544 659 544 1381 
z
M 1991 3584 
L 1991 3584 
z
" transform="scale(0.015625)"/>
       <path id="DejaVuSans-6c" d="M 603 4863 
L 1178 4863 
L 1178 0 
L 603 0 
L 603 4863 
z
" transform="scale(0.015625)"/>
       <path id="DejaVuSans-69" d="M 603 3500 
L 1178 3500 
L 1178 0 
L 603 0 
L 603 3500 
z
M 603 4863 
L 1178 4863 
L 1178 4134 
L 603 4134 
L 603 4863 
z
" transform="scale(0.015625)"/>
       <path id="DejaVuSans-76" d="M 191 3500 
L 800 3500 
L 1894 563 
L 2988 3500 
L 3597 3500 
L 2284 0 
L 1503 0 
L 191 3500 
z
" transform="scale(0.015625)"/>
      </defs>
      <use xlink:href="#DejaVuSans-Oblique-3b7"/>
      <use xlink:href="#DejaVuSans-70" transform="translate(63.378906 -16.40625) scale(0.7)"/>
      <use xlink:href="#DejaVuSans-72" transform="translate(107.8125 -16.40625) scale(0.7)"/>
      <use xlink:href="#DejaVuSans-6f" transform="translate(136.591797 -16.40625) scale(0.7)"/>
      <use xlink:href="#DejaVuSans-70" transform="translate(179.418945 -16.40625) scale(0.7)"/>
      <use xlink:href="#DejaVuSans-75" transform="translate(223.852539 -16.40625) scale(0.7)"/>
      <use xlink:href="#DejaVuSans-6c" transform="translate(268.217773 -16.40625) scale(0.7)"/>
      <use xlink:href="#DejaVuSans-73" transform="translate(287.666016 -16.40625) scale(0.7)"/>
      <use xlink:href="#DejaVuSans-69" transform="translate(324.135742 -16.40625) scale(0.7)"/>
      <use xlink:href="#DejaVuSans-76" transform="translate(343.583984 -16.40625) scale(0.7)"/>
      <use xlink:href="#DejaVuSans-65" transform="translate(385.009766 -16.40625) scale(0.7)"/>
     </g>
    </g>
    <g id="line2d_17">
     <path d="M 78.324269 395.245356 
L 90.324269 395.245356 
L 102.324269 395.245356 
" style="fill: none; stroke-dasharray: 7.4,3.2; stroke-dashoffset: 0; stroke: #ff7f0e; stroke-width: 2"/>
    </g>
    <g id="text_78">
     <!-- $C_T$ -->
     <g transform="translate(111.924269 399.445356) scale(0.12 -0.12)">
      <defs>
       <path id="DejaVuSans-Oblique-43" d="M 4447 4306 
L 4319 3641 
Q 4019 3944 3683 4091 
Q 3347 4238 2956 4238 
Q 2422 4238 2017 3981 
Q 1613 3725 1319 3200 
Q 1131 2863 1032 2486 
Q 934 2109 934 1728 
Q 934 1091 1264 756 
Q 1594 422 2222 422 
Q 2656 422 3056 561 
Q 3456 700 3834 978 
L 3688 231 
Q 3316 72 2936 -9 
Q 2556 -91 2175 -91 
Q 1278 -91 773 396 
Q 269 884 269 1753 
Q 269 2309 461 2846 
Q 653 3384 1013 3828 
Q 1394 4300 1883 4525 
Q 2372 4750 3022 4750 
Q 3422 4750 3780 4639 
Q 4138 4528 4447 4306 
z
" transform="scale(0.015625)"/>
       <path id="DejaVuSans-Oblique-54" d="M 378 4666 
L 4325 4666 
L 4225 4134 
L 2559 4134 
L 1759 0 
L 1125 0 
L 1925 4134 
L 275 4134 
L 378 4666 
z
" transform="scale(0.015625)"/>
      </defs>
      <use xlink:href="#DejaVuSans-Oblique-43" transform="translate(0 0.78125)"/>
      <use xlink:href="#DejaVuSans-Oblique-54" transform="translate(69.824219 -15.625) scale(0.7)"/>
     </g>
    </g>
    <g id="line2d_18">
     <path d="M 78.324269 412.859106 
L 90.324269 412.859106 
L 102.324269 412.859106 
" style="fill: none; stroke-dasharray: 7.4,3.2; stroke-dashoffset: 0; stroke: #2ca02c; stroke-width: 2"/>
    </g>
    <g id="text_79">
     <!-- $C_P$ -->
     <g transform="translate(111.924269 417.059106) scale(0.12 -0.12)">
      <defs>
       <path id="DejaVuSans-Oblique-50" d="M 1081 4666 
L 2541 4666 
Q 3178 4666 3512 4369 
Q 3847 4072 3847 3500 
Q 3847 2731 3353 2303 
Q 2859 1875 1966 1875 
L 1172 1875 
L 806 0 
L 172 0 
L 1081 4666 
z
M 1613 4147 
L 1275 2394 
L 2069 2394 
Q 2606 2394 2893 2669 
Q 3181 2944 3181 3456 
Q 3181 3784 2986 3965 
Q 2791 4147 2438 4147 
L 1613 4147 
z
" transform="scale(0.015625)"/>
      </defs>
      <use xlink:href="#DejaVuSans-Oblique-43" transform="translate(0 0.78125)"/>
      <use xlink:href="#DejaVuSans-Oblique-50" transform="translate(69.824219 -15.625) scale(0.7)"/>
     </g>
    </g>
   </g>
   <g id="legend_2">
    <g id="patch_8">
     <path d="M 251.561019 424.354731 
L 341.681019 424.354731 
Q 344.081019 424.354731 344.081019 421.954731 
L 344.081019 332.869418 
Q 344.081019 330.469418 341.681019 330.469418 
L 251.561019 330.469418 
Q 249.161019 330.469418 249.161019 332.869418 
L 249.161019 421.954731 
Q 249.161019 424.354731 251.561019 424.354731 
z
" style="fill: #ffffff; stroke: #cccccc; stroke-linejoin: miter"/>
    </g>
    <g id="text_80">
     <!-- Experiment -->
     <g transform="translate(259.064222 345.147387) scale(0.13 -0.13)">
      <defs>
       <path id="DejaVuSans-45" d="M 628 4666 
L 3578 4666 
L 3578 4134 
L 1259 4134 
L 1259 2753 
L 3481 2753 
L 3481 2222 
L 1259 2222 
L 1259 531 
L 3634 531 
L 3634 0 
L 628 0 
L 628 4666 
z
" transform="scale(0.015625)"/>
       <path id="DejaVuSans-78" d="M 3513 3500 
L 2247 1797 
L 3578 0 
L 2900 0 
L 1881 1375 
L 863 0 
L 184 0 
L 1544 1831 
L 300 3500 
L 978 3500 
L 1906 2253 
L 2834 3500 
L 3513 3500 
z
" transform="scale(0.015625)"/>
       <path id="DejaVuSans-6d" d="M 3328 2828 
Q 3544 3216 3844 3400 
Q 4144 3584 4550 3584 
Q 5097 3584 5394 3201 
Q 5691 2819 5691 2113 
L 5691 0 
L 5113 0 
L 5113 2094 
Q 5113 2597 4934 2840 
Q 4756 3084 4391 3084 
Q 3944 3084 3684 2787 
Q 3425 2491 3425 1978 
L 3425 0 
L 2847 0 
L 2847 2094 
Q 2847 2600 2669 2842 
Q 2491 3084 2119 3084 
Q 1678 3084 1418 2786 
Q 1159 2488 1159 1978 
L 1159 0 
L 581 0 
L 581 3500 
L 1159 3500 
L 1159 2956 
Q 1356 3278 1631 3431 
Q 1906 3584 2284 3584 
Q 2666 3584 2933 3390 
Q 3200 3197 3328 2828 
z
" transform="scale(0.015625)"/>
       <path id="DejaVuSans-6e" d="M 3513 2113 
L 3513 0 
L 2938 0 
L 2938 2094 
Q 2938 2591 2744 2837 
Q 2550 3084 2163 3084 
Q 1697 3084 1428 2787 
Q 1159 2491 1159 1978 
L 1159 0 
L 581 0 
L 581 3500 
L 1159 3500 
L 1159 2956 
Q 1366 3272 1645 3428 
Q 1925 3584 2291 3584 
Q 2894 3584 3203 3211 
Q 3513 2838 3513 2113 
z
" transform="scale(0.015625)"/>
       <path id="DejaVuSans-74" d="M 1172 4494 
L 1172 3500 
L 2356 3500 
L 2356 3053 
L 1172 3053 
L 1172 1153 
Q 1172 725 1289 603 
Q 1406 481 1766 481 
L 2356 481 
L 2356 0 
L 1766 0 
Q 1100 0 847 248 
Q 594 497 594 1153 
L 594 3053 
L 172 3053 
L 172 3500 
L 594 3500 
L 594 4494 
L 1172 4494 
z
" transform="scale(0.015625)"/>
      </defs>
      <use xlink:href="#DejaVuSans-45"/>
      <use xlink:href="#DejaVuSans-78" x="63.183594"/>
      <use xlink:href="#DejaVuSans-70" x="122.363281"/>
      <use xlink:href="#DejaVuSans-65" x="185.839844"/>
      <use xlink:href="#DejaVuSans-72" x="247.363281"/>
      <use xlink:href="#DejaVuSans-69" x="288.476562"/>
      <use xlink:href="#DejaVuSans-6d" x="316.259766"/>
      <use xlink:href="#DejaVuSans-65" x="413.671875"/>
      <use xlink:href="#DejaVuSans-6e" x="475.195312"/>
      <use xlink:href="#DejaVuSans-74" x="538.574219"/>
     </g>
    </g>
    <g id="line2d_19">
     <defs>
      <path id="ma74a7b8105" d="M -5 5 
L 5 5 
L 5 -5 
L -5 -5 
z
" style="stroke: #1f77b4; stroke-linejoin: miter"/>
     </defs>
     <g>
      <use xlink:href="#ma74a7b8105" x="265.961019" y="358.769106" style="fill: #1f77b4; stroke: #1f77b4; stroke-linejoin: miter"/>
     </g>
    </g>
    <g id="text_81">
     <!-- $\eta_{\mathrm{propulsive}}$ -->
     <g transform="translate(287.561019 362.969106) scale(0.12 -0.12)">
      <use xlink:href="#DejaVuSans-Oblique-3b7"/>
      <use xlink:href="#DejaVuSans-70" transform="translate(63.378906 -16.40625) scale(0.7)"/>
      <use xlink:href="#DejaVuSans-72" transform="translate(107.8125 -16.40625) scale(0.7)"/>
      <use xlink:href="#DejaVuSans-6f" transform="translate(136.591797 -16.40625) scale(0.7)"/>
      <use xlink:href="#DejaVuSans-70" transform="translate(179.418945 -16.40625) scale(0.7)"/>
      <use xlink:href="#DejaVuSans-75" transform="translate(223.852539 -16.40625) scale(0.7)"/>
      <use xlink:href="#DejaVuSans-6c" transform="translate(268.217773 -16.40625) scale(0.7)"/>
      <use xlink:href="#DejaVuSans-73" transform="translate(287.666016 -16.40625) scale(0.7)"/>
      <use xlink:href="#DejaVuSans-69" transform="translate(324.135742 -16.40625) scale(0.7)"/>
      <use xlink:href="#DejaVuSans-76" transform="translate(343.583984 -16.40625) scale(0.7)"/>
      <use xlink:href="#DejaVuSans-65" transform="translate(385.009766 -16.40625) scale(0.7)"/>
     </g>
    </g>
    <g id="line2d_20">
     <defs>
      <path id="m536ad42ff9" d="M -5 5 
L 5 5 
L 5 -5 
L -5 -5 
z
" style="stroke: #ff7f0e; stroke-linejoin: miter"/>
     </defs>
     <g>
      <use xlink:href="#m536ad42ff9" x="265.961019" y="377.607231" style="fill: #ff7f0e; stroke: #ff7f0e; stroke-linejoin: miter"/>
     </g>
    </g>
    <g id="text_82">
     <!-- $C_T$ -->
     <g transform="translate(287.561019 381.807231) scale(0.12 -0.12)">
      <use xlink:href="#DejaVuSans-Oblique-43" transform="translate(0 0.78125)"/>
      <use xlink:href="#DejaVuSans-Oblique-54" transform="translate(69.824219 -15.625) scale(0.7)"/>
     </g>
    </g>
    <g id="line2d_21">
     <defs>
      <path id="mc2176d257a" d="M -5 5 
L 5 5 
L 5 -5 
L -5 -5 
z
" style="stroke: #2ca02c; stroke-linejoin: miter"/>
     </defs>
     <g>
      <use xlink:href="#mc2176d257a" x="265.961019" y="395.220981" style="fill: #2ca02c; stroke: #2ca02c; stroke-linejoin: miter"/>
     </g>
    </g>
    <g id="text_83">
     <!-- $C_P$ -->
     <g transform="translate(287.561019 399.420981) scale(0.12 -0.12)">
      <use xlink:href="#DejaVuSans-Oblique-43" transform="translate(0 0.78125)"/>
      <use xlink:href="#DejaVuSans-Oblique-50" transform="translate(69.824219 -15.625) scale(0.7)"/>
     </g>
    </g>
    <g id="line2d_22">
     <defs>
      <path id="mbc9d93552e" d="M -5 5 
L 5 5 
L 5 -5 
L -5 -5 
z
" style="stroke: #d62728; stroke-linejoin: miter"/>
     </defs>
     <g>
      <use xlink:href="#mbc9d93552e" x="265.961019" y="412.834731" style="fill: #d62728; stroke: #d62728; stroke-linejoin: miter"/>
     </g>
    </g>
    <g id="text_84">
     <!-- $\eta_{\mathrm{fan}}$ -->
     <g transform="translate(287.561019 417.034731) scale(0.12 -0.12)">
      <defs>
       <path id="DejaVuSans-61" d="M 2194 1759 
Q 1497 1759 1228 1600 
Q 959 1441 959 1056 
Q 959 750 1161 570 
Q 1363 391 1709 391 
Q 2188 391 2477 730 
Q 2766 1069 2766 1631 
L 2766 1759 
L 2194 1759 
z
M 3341 1997 
L 3341 0 
L 2766 0 
L 2766 531 
Q 2569 213 2275 61 
Q 1981 -91 1556 -91 
Q 1019 -91 701 211 
Q 384 513 384 1019 
Q 384 1609 779 1909 
Q 1175 2209 1959 2209 
L 2766 2209 
L 2766 2266 
Q 2766 2663 2505 2880 
Q 2244 3097 1772 3097 
Q 1472 3097 1187 3025 
Q 903 2953 641 2809 
L 641 3341 
Q 956 3463 1253 3523 
Q 1550 3584 1831 3584 
Q 2591 3584 2966 3190 
Q 3341 2797 3341 1997 
z
" transform="scale(0.015625)"/>
      </defs>
      <use xlink:href="#DejaVuSans-Oblique-3b7"/>
      <use xlink:href="#DejaVuSans-66" transform="translate(63.378906 -16.40625) scale(0.7)"/>
      <use xlink:href="#DejaVuSans-61" transform="translate(88.022461 -16.40625) scale(0.7)"/>
      <use xlink:href="#DejaVuSans-6e" transform="translate(130.917969 -16.40625) scale(0.7)"/>
     </g>
    </g>
   </g>
   <g id="line2d_23">
    <path clip-path="url(#p5611107b58)" style="fill: none; stroke: #d62728; stroke-width: 2; stroke-linecap: square"/>
   </g>
   <g id="PathCollection_1">
    <defs>
     <path id="m3b2fe20e01" d="M -3.872983 3.872983 
L 3.872983 3.872983 
L 3.872983 -3.872983 
L -3.872983 -3.872983 
z
" style="stroke: #d62728"/>
    </defs>
    <g clip-path="url(#p5611107b58)">
     <use xlink:href="#m3b2fe20e01" x="276.182182" y="186.011817" style="fill: #d62728; stroke: #d62728"/>
     <use xlink:href="#m3b2fe20e01" x="330.055805" y="180.391477" style="fill: #d62728; stroke: #d62728"/>
     <use xlink:href="#m3b2fe20e01" x="371.45114" y="174.128049" style="fill: #d62728; stroke: #d62728"/>
     <use xlink:href="#m3b2fe20e01" x="418.722984" y="173.922465" style="fill: #d62728; stroke: #d62728"/>
     <use xlink:href="#m3b2fe20e01" x="454.811847" y="170.409696" style="fill: #d62728; stroke: #d62728"/>
     <use xlink:href="#m3b2fe20e01" x="504.251756" y="161.322864" style="fill: #d62728; stroke: #d62728"/>
     <use xlink:href="#m3b2fe20e01" x="533.236807" y="157.815961" style="fill: #d62728; stroke: #d62728"/>
     <use xlink:href="#m3b2fe20e01" x="564.792924" y="157.553713" style="fill: #d62728; stroke: #d62728"/>
     <use xlink:href="#m3b2fe20e01" x="594.915041" y="158.462862" style="fill: #d62728; stroke: #d62728"/>
     <use xlink:href="#m3b2fe20e01" x="615.115217" y="159.292749" style="fill: #d62728; stroke: #d62728"/>
     <use xlink:href="#m3b2fe20e01" x="639.300912" y="168.157545" style="fill: #d62728; stroke: #d62728"/>
     <use xlink:href="#m3b2fe20e01" x="658.496062" y="180.431026" style="fill: #d62728; stroke: #d62728"/>
     <use xlink:href="#m3b2fe20e01" x="673.44155" y="213.129785" style="fill: #d62728; stroke: #d62728"/>
     <use xlink:href="#m3b2fe20e01" x="686.656933" y="269.85763" style="fill: #d62728; stroke: #d62728"/>
     <use xlink:href="#m3b2fe20e01" x="695.725575" y="372.360439" style="fill: #d62728; stroke: #d62728"/>
    </g>
   </g>
   <g id="PathCollection_2">
    <defs>
     <path id="mf38ba7ffb9" d="M -3.872983 3.872983 
L 3.872983 3.872983 
L 3.872983 -3.872983 
L -3.872983 -3.872983 
z
" style="stroke: #ff7f0e"/>
    </defs>
    <g clip-path="url(#p5611107b58)">
     <use xlink:href="#mf38ba7ffb9" x="276.182182" y="166.7589" style="fill: #ff7f0e; stroke: #ff7f0e"/>
     <use xlink:href="#mf38ba7ffb9" x="330.055805" y="201.415796" style="fill: #ff7f0e; stroke: #ff7f0e"/>
     <use xlink:href="#mf38ba7ffb9" x="371.45114" y="228.045454" style="fill: #ff7f0e; stroke: #ff7f0e"/>
     <use xlink:href="#mf38ba7ffb9" x="418.722984" y="258.455436" style="fill: #ff7f0e; stroke: #ff7f0e"/>
     <use xlink:href="#mf38ba7ffb9" x="454.811847" y="281.671434" style="fill: #ff7f0e; stroke: #ff7f0e"/>
     <use xlink:href="#mf38ba7ffb9" x="504.251756" y="313.476146" style="fill: #ff7f0e; stroke: #ff7f0e"/>
     <use xlink:href="#mf38ba7ffb9" x="533.236807" y="332.122243" style="fill: #ff7f0e; stroke: #ff7f0e"/>
     <use xlink:href="#mf38ba7ffb9" x="564.792924" y="352.422313" style="fill: #ff7f0e; stroke: #ff7f0e"/>
     <use xlink:href="#mf38ba7ffb9" x="594.915041" y="371.799886" style="fill: #ff7f0e; stroke: #ff7f0e"/>
     <use xlink:href="#mf38ba7ffb9" x="615.115217" y="384.794669" style="fill: #ff7f0e; stroke: #ff7f0e"/>
     <use xlink:href="#mf38ba7ffb9" x="639.300912" y="400.35334" style="fill: #ff7f0e; stroke: #ff7f0e"/>
     <use xlink:href="#mf38ba7ffb9" x="658.496062" y="412.701589" style="fill: #ff7f0e; stroke: #ff7f0e"/>
     <use xlink:href="#mf38ba7ffb9" x="673.44155" y="422.316028" style="fill: #ff7f0e; stroke: #ff7f0e"/>
     <use xlink:href="#mf38ba7ffb9" x="686.656933" y="430.817491" style="fill: #ff7f0e; stroke: #ff7f0e"/>
     <use xlink:href="#mf38ba7ffb9" x="695.725575" y="436.651353" style="fill: #ff7f0e; stroke: #ff7f0e"/>
    </g>
   </g>
   <g id="PathCollection_3">
    <defs>
     <path id="mb4c9449db8" d="M -3.872983 3.872983 
L 3.872983 3.872983 
L 3.872983 -3.872983 
L -3.872983 -3.872983 
z
" style="stroke: #2ca02c"/>
    </defs>
    <g clip-path="url(#p5611107b58)">
     <use xlink:href="#mb4c9449db8" x="276.182182" y="260.320983" style="fill: #2ca02c; stroke: #2ca02c"/>
     <use xlink:href="#mb4c9449db8" x="330.055805" y="272.646138" style="fill: #2ca02c; stroke: #2ca02c"/>
     <use xlink:href="#mb4c9449db8" x="371.45114" y="284.18208" style="fill: #2ca02c; stroke: #2ca02c"/>
     <use xlink:href="#mb4c9449db8" x="418.722984" y="299.551003" style="fill: #2ca02c; stroke: #2ca02c"/>
     <use xlink:href="#mb4c9449db8" x="454.811847" y="312.859823" style="fill: #2ca02c; stroke: #2ca02c"/>
     <use xlink:href="#mb4c9449db8" x="504.251756" y="333.306978" style="fill: #2ca02c; stroke: #2ca02c"/>
     <use xlink:href="#mb4c9449db8" x="533.236807" y="346.485089" style="fill: #2ca02c; stroke: #2ca02c"/>
     <use xlink:href="#mb4c9449db8" x="564.792924" y="361.832759" style="fill: #2ca02c; stroke: #2ca02c"/>
     <use xlink:href="#mb4c9449db8" x="594.915041" y="377.456075" style="fill: #2ca02c; stroke: #2ca02c"/>
     <use xlink:href="#mb4c9449db8" x="615.115217" y="388.465633" style="fill: #2ca02c; stroke: #2ca02c"/>
     <use xlink:href="#mb4c9449db8" x="639.300912" y="402.209652" style="fill: #2ca02c; stroke: #2ca02c"/>
     <use xlink:href="#mb4c9449db8" x="658.496062" y="413.553827" style="fill: #2ca02c; stroke: #2ca02c"/>
     <use xlink:href="#mb4c9449db8" x="673.44155" y="422.653738" style="fill: #2ca02c; stroke: #2ca02c"/>
     <use xlink:href="#mb4c9449db8" x="686.656933" y="430.895154" style="fill: #2ca02c; stroke: #2ca02c"/>
     <use xlink:href="#mb4c9449db8" x="695.725575" y="436.656414" style="fill: #2ca02c; stroke: #2ca02c"/>
    </g>
   </g>
   <g id="PathCollection_4">
    <defs>
     <path id="m8babab7a05" d="M -3.872983 3.872983 
L 3.872983 3.872983 
L 3.872983 -3.872983 
L -3.872983 -3.872983 
z
" style="stroke: #1f77b4"/>
    </defs>
    <g clip-path="url(#p5611107b58)">
     <use xlink:href="#m8babab7a05" x="276.182182" y="250.849352" style="fill: #1f77b4; stroke: #1f77b4"/>
     <use xlink:href="#m8babab7a05" x="330.055805" y="212.633651" style="fill: #1f77b4; stroke: #1f77b4"/>
     <use xlink:href="#m8babab7a05" x="371.45114" y="186.714533" style="fill: #1f77b4; stroke: #1f77b4"/>
     <use xlink:href="#m8babab7a05" x="418.722984" y="159.790564" style="fill: #1f77b4; stroke: #1f77b4"/>
     <use xlink:href="#m8babab7a05" x="454.811847" y="141.332614" style="fill: #1f77b4; stroke: #1f77b4"/>
     <use xlink:href="#m8babab7a05" x="504.251756" y="117.870885" style="fill: #1f77b4; stroke: #1f77b4"/>
     <use xlink:href="#m8babab7a05" x="533.236807" y="104.092773" style="fill: #1f77b4; stroke: #1f77b4"/>
     <use xlink:href="#m8babab7a05" x="564.792924" y="91.634697" style="fill: #1f77b4; stroke: #1f77b4"/>
     <use xlink:href="#m8babab7a05" x="594.915041" y="79.92518" style="fill: #1f77b4; stroke: #1f77b4"/>
     <use xlink:href="#m8babab7a05" x="615.115217" y="72.714009" style="fill: #1f77b4; stroke: #1f77b4"/>
     <use xlink:href="#m8babab7a05" x="639.300912" y="64.760216" style="fill: #1f77b4; stroke: #1f77b4"/>
     <use xlink:href="#m8babab7a05" x="658.496062" y="56.659446" style="fill: #1f77b4; stroke: #1f77b4"/>
     <use xlink:href="#m8babab7a05" x="673.44155" y="50.409484" style="fill: #1f77b4; stroke: #1f77b4"/>
     <use xlink:href="#m8babab7a05" x="686.656933" y="46.605031" style="fill: #1f77b4; stroke: #1f77b4"/>
     <use xlink:href="#m8babab7a05" x="695.725575" y="50.179832" style="fill: #1f77b4; stroke: #1f77b4"/>
    </g>
   </g>
  </g>
 </g>
 <defs>
  <clipPath id="p5611107b58">
   <rect x="54.01375" y="23.837812" width="675.52596" height="414.813182"/>
  </clipPath>
 </defs>
</svg>
